HIERARCHY
ROOT Hips
{
	OFFSET 0.00000 0.00000 0.00000
	CHANNELS 6 Xposition Yposition Zposition Zrotation Yrotation Xrotation 
	JOINT LHipJoint
	{
		OFFSET 0 0 0
		CHANNELS 3 Zrotation Yrotation Xrotation
		JOINT LeftHip
		{
			OFFSET 1.65674 -1.80282 0.62477
			CHANNELS 3 Zrotation Yrotation Xrotation
			JOINT LeftKnee
			{
				OFFSET 2.59720 -7.13576 0.00000
				CHANNELS 3 Zrotation Yrotation Xrotation
				JOINT LeftAnkle
				{
					OFFSET 2.49236 -6.84770 0.00000
					CHANNELS 3 Zrotation Yrotation Xrotation
					JOINT LeftToe
					{
						OFFSET 0.19704 -0.54136 2.14581
						CHANNELS 3 Zrotation Yrotation Xrotation
						End Site
						{
							OFFSET 0.00000 -0.00000 1.11249
						}
					}
				}
			}
		}
	}
	JOINT RHipJoint
	{
		OFFSET 0 0 0
		CHANNELS 3 Zrotation Yrotation Xrotation
		JOINT RightHip
		{
			OFFSET -1.61070 -1.80282 0.62476
			CHANNELS 3 Zrotation Yrotation Xrotation
			JOINT RightKnee
			{
				OFFSET -2.59502 -7.12977 0.00000
				CHANNELS 3 Zrotation Yrotation Xrotation
				JOINT RightAnkle
				{
					OFFSET -2.46780 -6.78024 0.00000
					CHANNELS 3 Zrotation Yrotation Xrotation
					JOINT RightToe
					{
						OFFSET -0.23024 -0.63258 2.13368
						CHANNELS 3 Zrotation Yrotation Xrotation
						End Site
						{
							OFFSET -0.00000 -0.00000 1.11569
						}
					}
				}
			}
		}
	}
	JOINT lowerback
	{
		OFFSET 0 0 0
		CHANNELS 3 Zrotation Yrotation Xrotation
		JOINT Chest
		{
			OFFSET 0.01961 2.05450 -0.14112
			CHANNELS 3 Zrotation Yrotation Xrotation
			JOINT Chest2
			{
				OFFSET 0.01021 2.06436 -0.05921
				CHANNELS 3 Zrotation Yrotation Xrotation
				JOINT lowerneck
				{
					OFFSET 0 0 0
					CHANNELS 3 Zrotation Yrotation Xrotation
					JOINT Neck
					{
						OFFSET 0.00713 1.56711 0.14968
						CHANNELS 3 Zrotation Yrotation Xrotation
						JOINT Head
						{
							OFFSET 0.03429 1.56041 -0.10006
							CHANNELS 3 Zrotation Yrotation Xrotation
							End Site
							{
								OFFSET 0.01305 1.62560 -0.05265
							}
						}
					}
				}
				JOINT LeftCollar
				{
					OFFSET 0 0 0
					CHANNELS 3 Zrotation Yrotation Xrotation
					JOINT LeftShoulder
					{
						OFFSET 3.54205 0.90436 -0.17364
CHANNELS 3 Zrotation Xrotation Yrotation
						JOINT LeftElbow
						{
OFFSET 0 -4.865130 -0.000000
CHANNELS 3 Zrotation Xrotation Yrotation
							JOINT LeftWrist
							{
OFFSET 0 -3.355540 0.000000
CHANNELS 3 Zrotation Xrotation Yrotation
								JOINT lhand
								{
									OFFSET 0 0 0
CHANNELS 3 Zrotation Xrotation Yrotation
									JOINT LFingers
									{
OFFSET 0 -0.661170 0.000000
CHANNELS 3 Zrotation Xrotation Yrotation
										End Site
										{
OFFSET 0 -0.533060 0.000000
										}
									}
								}
								JOINT LThumb
								{
OFFSET 0 0.000000 0.000000
CHANNELS 3 Zrotation Xrotation Yrotation
									End Site
									{
OFFSET 0 -0.541200 0.541200
									}
								}
							}
						}
					}
				}
				JOINT RightCollar
				{
					OFFSET 0 0 0
					CHANNELS 3 Zrotation Yrotation Xrotation
					JOINT RightShoulder
					{
						OFFSET -3.49802 0.75994 -0.32616
CHANNELS 3 Zrotation Xrotation Yrotation
						JOINT RightElbow
						{
OFFSET 0 -5.026490 0.000000
CHANNELS 3 Zrotation Xrotation Yrotation
							JOINT RightWrist
							{
OFFSET 0 -3.364310 0.000000
CHANNELS 3 Zrotation Xrotation Yrotation
								JOINT rhand
								{
									OFFSET 0 0 0
CHANNELS 3 Zrotation Xrotation Yrotation
									JOINT RFingers
									{
OFFSET 0 -0.730410 0.000000
CHANNELS 3 Zrotation Xrotation Yrotation
										End Site
										{
OFFSET 0 -0.588870 0.000000
										}
									}
								}
								JOINT RThumb
								{
OFFSET 0 0.000000 0.000000
CHANNELS 3 Zrotation Xrotation Yrotation
									End Site
									{
OFFSET 0 -0.597860 0.597860
									}
								}
							}
						}
					}
				}
			}
		}
	}
}
MOTION
Frames: 11
Frame Time: .0083333
5.3507 16.8982 2.4254 -163.3240 82.0425 -164.2350 0.0000 0.0000 0.0000 -5.1921 9.8522 -17.5045 4.9806 13.3619 40.7389 0.8050 8.6590 -22.2126 0.4147 -4.1337 -11.4532 0.0000 0.0000 0.0000 18.2346 0.6448 -19.8206 -5.9211 -14.3514 44.6642 -1.6069 -0.4280 -24.1390 -0.0188 0.8852 -2.4331 -1.4134 -2.7991 11.6706 -4.5263 -3.3738 7.6345 -3.5619 -1.4445 1.2646 -11.7483 -14.7229 -0.5564 9.9526 -20.0002 4.1736 3.7913 -9.9560 3.4990 0.0000 0.0000 0.0000 13.897 -3.1245 -19.5151 92.9542 -59.967 62.5582 35.7971 -13.4664 -20.3719 0.0 0.0 0.0 -7.1250 0.0 0.0 7.8542 54.4083 -1.8242 0.0000 0.0000 0.0000 -50.9797 -4.2974 -24.8172 -18.4576 -28.7391 -4.7672 -50.4132 -30.3184 -27.9922 0.0 0.0 0.0 7.1250 0.0 -0.0 -11.2082 -9.1816 -13.086
5.3720 16.9016 2.4579 -164.6800 82.3041 -165.4620 0.0000 0.0000 0.0000 -5.3675 9.9930 -17.4306 4.9238 13.2975 40.4925 0.7810 8.7892 -22.1037 0.3577 -3.8421 -10.6329 0.0000 0.0000 0.0000 18.0449 0.9424 -19.8124 -5.9228 -14.3531 44.6713 -1.6378 0.0187 -24.2174 -0.0045 0.4322 -1.1875 -1.7004 -2.8862 11.4373 -4.6770 -3.5044 7.6368 -3.5550 -1.5158 1.3957 -11.4298 -14.6399 -1.2562 9.3212 -19.8069 4.6598 3.5205 -9.8458 3.6406 -0.0000 -0.0000 0.0000 14.3019 -2.6391 -18.8483 93.4423 -59.9552 62.9807 35.5354 -13.2261 -20.5937 0.0 0.0 0.0 -7.1250 0.0 0.0 7.5477 54.6066 -1.789 -0.0000 -0.0000 0.0000 -51.9231 -2.8975 -25.8544 -18.8205 -29.195 -4.943 -49.3861 -29.5659 -26.7832 0.0 0.0 0.0 7.1250 0.0 -0.0 -11.0031 -7.1957 -12.5142
5.3921 16.8834 2.4838 -159.8860 82.3419 -160.8280 0.0000 0.0000 0.0000 -4.5113 10.3769 -17.2160 4.8814 13.2490 40.3078 0.7497 8.7853 -21.8125 0.3414 -3.7547 -10.3875 0.0000 0.0000 0.0000 19.0314 0.5788 -19.8561 -5.8926 -14.3235 44.5492 -1.5341 -1.6509 -24.0523 -0.2684 3.3327 -9.2064 -1.1807 -3.1285 11.5078 -4.5075 -3.8031 7.5754 -3.6315 -1.6603 1.2527 -13.0979 -14.1047 -1.5009 10.6298 -19.1605 5.4024 4.1191 -9.5081 4.1311 0.0000 -0.0000 0.0000 14.3205 -1.7375 -17.8897 93.9226 -59.9418 63.3964 35.0554 -13.2011 -20.6372 0.0 0.0 0.0 -7.1250 0.0 0.0 7.0103 54.5495 -1.6508 0.0000 -0.0000 0.0000 -53.0777 -1.5412 -26.0623 -19.0455 -29.4752 -5.0532 -51.866 -33.5965 -27.9117 0.0 0.0 0.0 7.1250 0.0 -0.0 -12.0095 -9.8631 -14.1768
5.4110 16.9021 2.5102 -159.0010 82.4651 -160.0590 0.0000 0.0000 0.0000 -4.3293 10.5789 -16.8479 4.7978 13.1524 39.9417 0.7405 8.8497 -21.7826 0.3507 -3.8050 -10.5288 0.0000 0.0000 0.0000 19.0824 0.8724 -19.4690 -5.8977 -14.3285 44.5698 -1.6878 -0.1635 -24.6471 -0.0549 1.5119 -4.1585 -0.9732 -3.2746 11.6440 -4.6654 -3.9907 7.4904 -3.8829 -1.7473 1.0541 -11.1820 -14.0265 -1.2660 8.7072 -18.9395 4.7555 3.3971 -9.4269 3.4999 -0.0000 -0.0000 0.0000 14.8459 -0.9118 -17.3254 94.1850 -59.9337 63.6235 34.4003 -13.6781 -20.575 0.0 0.0 0.0 -7.1250 0.0 0.0 6.2913 54.333 -1.4472 -0.0000 -0.0000 0.0000 -53.7628 0.1339 -26.3456 -19.2756 -29.7597 -5.1669 -54.5303 -37.5026 -28.6405 0.0 0.0 0.0 7.1250 0.0 -0.0 -13.1940 -12.2901 -16.082
5.4299 16.9080 2.5388 -164.1610 82.7824 -165.2470 0.0000 0.0000 0.0000 -5.0988 10.3879 -16.3874 4.7152 13.0557 39.5773 0.7382 9.1690 -22.0375 0.3613 -3.8614 -10.6870 0.0000 0.0000 0.0000 18.5112 0.5688 -19.5461 -5.8824 -14.3134 44.5078 -1.6015 -1.6268 -24.5506 -0.3760 3.9382 -10.9029 -1.6307 -3.2613 11.6354 -5.0026 -4.0129 7.5240 -3.8674 -1.7642 1.1177 -10.7153 -13.8404 -0.9400 8.5329 -18.6858 4.0812 3.3635 -9.3099 3.1596 0.0000 0.0000 0.0000 15.3754 -0.5677 -17.0871 94.3563 -59.9282 63.7718 34.5826 -13.5763 -20.6044 0.0 0.0 0.0 -7.1250 0.0 0.0 6.4896 54.407 -1.5048 0.0000 0.0000 0.0000 -54.4758 1.8128 -27.0551 -19.4624 -29.9892 -5.26 -54.8945 -38.052 -27.8567 0.0 0.0 0.0 7.1250 0.0 -0.0 -13.6324 -11.557 -16.5106
5.4488 16.9268 2.5646 -165.5440 82.9399 -166.7260 0.0000 0.0000 0.0000 -5.2689 10.0693 -15.7373 4.5979 12.9162 39.0555 0.7141 9.5179 -22.1241 0.3404 -3.7491 -10.3719 0.0000 0.0000 0.0000 18.2377 0.9625 -19.1086 -5.9016 -14.3323 44.5854 -1.7190 0.0916 -24.7898 -0.0427 1.3339 -3.6680 -1.7908 -3.4327 11.6338 -5.1181 -4.2447 7.5842 -3.8762 -1.8800 1.1732 -11.7503 -13.5405 -1.0941 9.6370 -18.3395 4.4067 3.8139 -9.1241 3.4500 0.0000 0.0000 0.0000 15.4036 -0.2498 -16.2869 94.3503 -59.9284 63.7666 34.9808 -13.2329 -20.5769 0.0 0.0 0.0 -7.1250 0.0 0.0 6.9326 54.4634 -1.6178 0.0000 0.0000 0.0000 -55.4933 2.9759 -27.7021 -19.6451 -30.2123 -5.3516 -54.9904 -38.3526 -26.8668 0.0 0.0 0.0 7.1250 0.0 -0.0 -13.9897 -10.39 -16.743
5.4636 16.9312 2.5853 -164.3360 83.0463 -165.6210 0.0000 0.0000 0.0000 -5.0529 9.9465 -15.2378 4.4976 12.7946 38.6045 0.6873 9.6858 -22.0288 0.3292 -3.6875 -10.1990 0.0000 0.0000 0.0000 18.5034 1.0209 -18.9328 -5.8929 -14.3238 44.5504 -1.7209 0.2453 -24.7537 -0.0095 0.6296 -1.7303 -1.4679 -3.6517 11.7156 -5.2532 -4.5136 7.5619 -4.1630 -2.0034 1.0545 -12.5193 -13.3105 -1.1925 10.5483 -18.0999 4.8891 4.1741 -8.9913 3.7428 0.0000 0.0000 0.0000 15.5651 0.1041 -15.3631 94.0754 -59.9371 63.5287 35.2615 -13.1847 -20.4603 0.0 0.0 0.0 -7.1250 0.0 0.0 7.2531 54.3911 -1.6804 0.0000 0.0000 0.0000 -56.3283 4.0641 -28.4607 -19.7063 -30.2869 -5.3824 -55.5616 -39.4367 -26.4549 0.0 0.0 0.0 7.1250 0.0 -0.0 -14.4191 -10.226 -17.2547
5.4776 16.9297 2.6062 -167.3320 83.2744 -168.6080 0.0000 0.0000 0.0000 -5.4806 9.9819 -14.9504 4.4171 12.6957 38.2396 0.6968 9.8005 -22.2210 0.2987 -3.5144 -9.7143 0.0000 0.0000 0.0000 18.1975 0.9306 -18.9587 -5.8762 -14.3073 44.4828 -1.6982 0.0033 -24.6676 -0.0129 0.7333 -2.0151 -1.7345 -3.6953 11.6887 -5.4940 -4.5903 7.5284 -4.2584 -2.0427 1.0323 -12.4835 -13.3274 -1.1052 10.4615 -18.1327 4.9909 4.1440 -9.0114 3.7517 -0.0000 -0.0000 0.0000 15.8551 0.3638 -14.7985 93.9087 -59.9422 63.3843 34.9741 -13.2076 -20.3746 0.0 0.0 0.0 -7.1250 0.0 0.0 6.9420 54.2284 -1.5802 -0.0000 -0.0000 0.0000 -56.9975 5.2548 -29.8763 -19.5275 -30.0689 -5.2926 -55.8977 -40.0413 -26.7201 0.0 0.0 0.0 7.1250 0.0 -0.0 -14.5159 -10.7709 -17.4877
5.4925 16.9344 2.6309 -168.8160 83.5164 -170.1050 0.0000 0.0000 0.0000 -5.6610 10.1384 -14.7150 4.3632 12.6286 37.9937 0.7396 9.7900 -22.6007 0.3090 -3.5737 -9.8803 0.0000 0.0000 0.0000 18.0871 0.9344 -18.8850 -5.8466 -14.2780 44.3628 -1.6527 -0.3860 -24.4657 -0.0459 1.3824 -3.8016 -1.8487 -3.6792 11.6496 -5.7132 -4.5747 7.4978 -4.4280 -2.0320 1.0149 -12.0010 -13.3532 -0.9261 9.9477 -18.1545 4.9419 3.9462 -9.0327 3.6179 0.0000 -0.0000 0.0000 16.2102 0.9273 -14.3954 94.3284 -59.9291 63.7476 33.9931 -13.0632 -20.71 0.0 0.0 0.0 -7.1250 0.0 0.0 5.8291 54.3985 -1.3496 0.0000 -0.0000 0.0000 -57.2617 6.5497 -31.6517 -19.5156 -30.0543 -5.2866 -55.4342 -38.9947 -26.4223 0.0 0.0 0.0 7.1250 0.0 -0.0 -14.3614 -10.1058 -17.1571
5.5075 16.9335 2.6560 -165.9310 83.7137 -167.3450 0.0000 0.0000 0.0000 -5.1988 10.4190 -14.4263 4.3136 12.5664 37.7662 0.7845 9.5157 -22.7594 0.3010 -3.5274 -9.7506 0.0000 0.0000 0.0000 18.5651 0.9958 -18.6741 -5.8163 -14.2480 44.2400 -1.6317 -0.7649 -24.4444 -0.0606 1.5882 -4.3689 -1.5517 -3.7923 11.7080 -5.7532 -4.7023 7.5174 -4.6193 -2.0873 0.9678 -11.6014 -13.2209 -0.8354 9.5294 -17.9527 4.7879 3.8056 -8.9397 3.4602 0.0000 0.0000 0.0000 16.4622 1.5346 -13.7582 94.7413 -59.9149 64.1049 33.4657 -13.1261 -20.9931 0.0 0.0 0.0 -7.1250 0.0 0.0 5.2154 54.6061 -1.2333 0.0000 0.0000 0.0000 -57.5995 7.5175 -33.1745 -19.6520 -30.2207 -5.3551 -54.0994 -36.8011 -25.4599 0.0 0.0 0.0 7.1250 0.0 -0.0 -13.9370 -8.0841 -16.2128
5.5230 16.9313 2.6795 -165.8230 83.9805 -167.3250 0.0000 0.0000 0.0000 -5.1309 10.6131 -14.1214 4.2631 12.5026 37.5339 0.8153 9.4642 -22.9868 0.2234 -3.0425 -8.3970 0.0000 0.0000 0.0000 18.6349 1.0850 -18.4505 -5.7878 -14.2195 44.1241 -1.6561 -0.5532 -24.5493 -0.0220 0.9572 -2.6309 -1.8934 -4.0090 11.7710 -5.6301 -5.0241 7.5464 -4.2593 -2.2631 0.9827 -11.2072 -13.0991 -1.1373 8.5118 -17.6864 4.7688 3.4673 -8.8156 3.3464 -0.0000 0.0000 0.0000 16.0229 1.853 -12.5657 94.7188 -59.9157 64.0854 33.5969 -13.7382 -20.7919 0.0 0.0 0.0 -7.1250 0.0 0.0 5.3843 54.4055 -1.2471 -0.0000 0.0000 0.0000 -58.628 8.0216 -33.9515 -19.6873 -30.2638 -5.3729 -53.0919 -35.8222 -25.0023 0.0 0.0 0.0 7.1250 0.0 -0.0 -13.5270 -6.9275 -15.4732
